<svg width="719" height="447" viewBox="0 0 719 447" fill="none" xmlns="http://www.w3.org/2000/svg">
<path d="M464.872 318.16H521.87V451.46H464.872V318.16Z" fill="#333333"/>
<path d="M495.962 311.435H521.87V319.023H495.962V311.435Z" fill="#333333"/>
<path d="M506.843 307.124H521.87V311.435H506.843V307.124Z" fill="#333333"/>
<path opacity="0.06" d="M488.707 327.473H498.034V334.37H488.707V327.473Z" fill="white"/>
<path opacity="0.12" d="M488.707 344.544H498.034V351.442H488.707V344.544Z" fill="white"/>
<path opacity="0.19" d="M488.707 378.689H498.034V385.586H488.707V378.689Z" fill="white"/>
<path opacity="0.14" d="M488.707 412.833H498.034V419.73H488.707V412.833Z" fill="white"/>
<path opacity="0.1" d="M488.707 429.905H498.034V436.802H488.707V429.905Z" fill="white"/>
<path d="M607.884 332.645H685.954V404.037H607.884V332.645Z" fill="#333333"/>
<path d="M620.147 326.265H673.518V356.96H620.147V326.265Z" fill="#333333"/>
<path d="M602.185 377.653H680.254V449.045H602.185V377.653Z" fill="#333333"/>
<path d="M614.62 371.272H667.991V401.968H614.62V371.272Z" fill="#333333"/>
<path d="M498.207 368.168H576.276V450.425H498.207V368.168Z" fill="#333333"/>
<path d="M510.47 360.926H563.841V396.449H510.47V360.926Z" fill="#333333"/>
<path d="M236.881 393.174H314.951V472.671H236.881V393.174Z" fill="#333333"/>
<path d="M249.144 386.104H302.515V420.42H249.144V386.104Z" fill="#333333"/>
<path d="M406.147 229.007H493.371V450.253H406.147V229.007Z" fill="#333333"/>
<path opacity="0.46" d="M467.981 239.008H489.053V242.975H467.981V239.008Z" fill="#E6E6E6"/>
<path opacity="0.34" d="M439.136 239.008H460.208V242.975H439.136V239.008Z" fill="#E6E6E6"/>
<path opacity="0.52" d="M410.465 239.008H431.537V242.975H410.465V239.008Z" fill="#E6E6E6"/>
<path opacity="0.54" d="M467.981 248.148H489.053V252.114H467.981V248.148Z" fill="#E6E6E6"/>
<path opacity="0.3" d="M439.136 248.148H460.208V252.114H439.136V248.148Z" fill="#E6E6E6"/>
<path opacity="0.06" d="M410.465 248.148H431.537V252.114H410.465V248.148Z" fill="#E6E6E6"/>
<path opacity="0.15" d="M467.981 257.287H489.053V261.254H467.981V257.287Z" fill="#E6E6E6"/>
<path opacity="0.42" d="M439.136 257.287H460.208V261.254H439.136V257.287Z" fill="#E6E6E6"/>
<path opacity="0.48" d="M410.465 257.287H431.537V261.254H410.465V257.287Z" fill="#E6E6E6"/>
<path opacity="0.18" d="M467.981 266.427H489.053V270.393H467.981V266.427Z" fill="#E6E6E6"/>
<path opacity="0.28" d="M410.465 266.427H431.537V270.393H410.465V266.427Z" fill="#E6E6E6"/>
<path opacity="0.29" d="M467.981 275.566H489.053V279.533H467.981V275.566Z" fill="#E6E6E6"/>
<path opacity="0.28" d="M439.136 275.566H460.208V279.533H439.136V275.566Z" fill="#E6E6E6"/>
<path opacity="0.56" d="M410.465 275.566H431.537V279.533H410.465V275.566Z" fill="#E6E6E6"/>
<path opacity="0.41" d="M467.981 284.706H489.053V288.672H467.981V284.706Z" fill="#E6E6E6"/>
<path opacity="0.16" d="M439.136 284.706H460.208V288.672H439.136V284.706Z" fill="#E6E6E6"/>
<path opacity="0.4" d="M410.465 284.706H431.537V288.672H410.465V284.706Z" fill="#E6E6E6"/>
<path opacity="0.1" d="M467.981 293.846H489.053V297.812H467.981V293.846Z" fill="#E6E6E6"/>
<path opacity="0.17" d="M439.136 293.846H460.208V297.812H439.136V293.846Z" fill="#E6E6E6"/>
<path opacity="0.08" d="M410.465 293.846H431.537V297.812H410.465V293.846Z" fill="#E6E6E6"/>
<path opacity="0.49" d="M467.981 302.985H489.053V306.952H467.981V302.985Z" fill="#E6E6E6"/>
<path opacity="0.58" d="M439.136 302.985H460.208V306.952H439.136V302.985Z" fill="#E6E6E6"/>
<path opacity="0.58" d="M410.465 302.985H431.537V306.952H410.465V302.985Z" fill="#E6E6E6"/>
<path opacity="0.26" d="M467.981 312.125H489.053V316.091H467.981V312.125Z" fill="#E6E6E6"/>
<path opacity="0.37" d="M439.136 312.125H460.208V316.091H439.136V312.125Z" fill="#E6E6E6"/>
<path opacity="0.34" d="M410.465 312.125H431.537V316.091H410.465V312.125Z" fill="#E6E6E6"/>
<path opacity="0.55" d="M467.981 321.264H489.053V325.231H467.981V321.264Z" fill="#E6E6E6"/>
<path opacity="0.12" d="M439.136 321.264H460.208V325.231H439.136V321.264Z" fill="#E6E6E6"/>
<path opacity="0.6" d="M410.465 321.264H431.537V325.231H410.465V321.264Z" fill="#E6E6E6"/>
<path opacity="0.02" d="M467.981 330.404H489.053V334.37H467.981V330.404Z" fill="#E6E6E6"/>
<path opacity="0.28" d="M439.136 330.404H460.208V334.37H439.136V330.404Z" fill="#E6E6E6"/>
<path opacity="0.21" d="M410.465 330.404H431.537V334.37H410.465V330.404Z" fill="#E6E6E6"/>
<path opacity="0.57" d="M467.981 339.543H489.053V343.51H467.981V339.543Z" fill="#E6E6E6"/>
<path opacity="0.38" d="M439.136 339.543H460.208V343.51H439.136V339.543Z" fill="#E6E6E6"/>
<path opacity="0.25" d="M410.465 339.543H431.537V343.51H410.465V339.543Z" fill="#E6E6E6"/>
<path opacity="0.15" d="M467.981 348.683H489.053V352.649H467.981V348.683Z" fill="#E6E6E6"/>
<path opacity="0.47" d="M439.136 348.683H460.208V352.649H439.136V348.683Z" fill="#E6E6E6"/>
<path opacity="0.3" d="M410.465 348.683H431.537V352.649H410.465V348.683Z" fill="#E6E6E6"/>
<path opacity="0.4" d="M467.981 357.822H489.053V361.788H467.981V357.822Z" fill="#E6E6E6"/>
<path opacity="0.39" d="M439.136 357.822H460.208V361.788H439.136V357.822Z" fill="#E6E6E6"/>
<path opacity="0.24" d="M410.465 357.822H431.537V361.788H410.465V357.822Z" fill="#E6E6E6"/>
<path opacity="0.46" d="M467.981 366.962H489.053V370.928H467.981V366.962Z" fill="#E6E6E6"/>
<path opacity="0.22" d="M439.136 366.962H460.208V370.928H439.136V366.962Z" fill="#E6E6E6"/>
<path opacity="0.11" d="M410.465 366.962H431.537V370.928H410.465V366.962Z" fill="#E6E6E6"/>
<path opacity="0.11" d="M439.136 376.102H460.208V380.068H439.136V376.102Z" fill="#E6E6E6"/>
<path opacity="0.02" d="M410.465 376.102H431.537V380.068H410.465V376.102Z" fill="#E6E6E6"/>
<path opacity="0.27" d="M467.981 385.241H489.053V389.208H467.981V385.241Z" fill="#E6E6E6"/>
<path opacity="0.21" d="M439.136 385.241H460.208V389.208H439.136V385.241Z" fill="#E6E6E6"/>
<path opacity="0.49" d="M410.465 385.241H431.537V389.208H410.465V385.241Z" fill="#E6E6E6"/>
<path opacity="0.6" d="M467.981 394.381H489.053V398.347H467.981V394.381Z" fill="#E6E6E6"/>
<path opacity="0.31" d="M439.136 394.381H460.208V398.347H439.136V394.381Z" fill="#E6E6E6"/>
<path opacity="0.22" d="M410.465 394.381H431.537V398.347H410.465V394.381Z" fill="#E6E6E6"/>
<path opacity="0.54" d="M467.981 403.52H489.053V407.487H467.981V403.52Z" fill="#E6E6E6"/>
<path opacity="0.6" d="M439.136 403.52H460.208V407.487H439.136V403.52Z" fill="#E6E6E6"/>
<path opacity="0.08" d="M410.465 403.52H431.537V407.487H410.465V403.52Z" fill="#E6E6E6"/>
<path opacity="0.55" d="M439.136 412.66H460.208V416.626H439.136V412.66Z" fill="#E6E6E6"/>
<path d="M410.465 412.66H431.537V416.626H410.465V412.66Z" fill="#E6E6E6"/>
<path opacity="0.6" d="M466.599 239.008H467.981V416.626H466.599V239.008Z" fill="#E6E6E6"/>
<path opacity="0.6" d="M431.537 239.008H432.919V416.626H431.537V239.008Z" fill="#E6E6E6"/>
<path d="M362.621 229.007H406.147V450.253H362.621V229.007Z" fill="#4D4D4D"/>
<path opacity="0.69" d="M369.012 239.008H401.829V242.975H369.012V239.008Z" fill="#E6E6E6"/>
<path opacity="0.79" d="M369.012 248.148H401.829V252.114H369.012V248.148Z" fill="#E6E6E6"/>
<path opacity="0.19" d="M369.012 257.287H401.829V261.254H369.012V257.287Z" fill="#E6E6E6"/>
<path opacity="0.88" d="M369.012 266.427H401.829V270.393H369.012V266.427Z" fill="#E6E6E6"/>
<path opacity="0.5" d="M369.012 275.566H401.829V279.533H369.012V275.566Z" fill="#E6E6E6"/>
<path opacity="0.25" d="M369.012 284.706H401.829V288.672H369.012V284.706Z" fill="#E6E6E6"/>
<path opacity="0.91" d="M369.012 293.846H401.829V297.812H369.012V293.846Z" fill="#E6E6E6"/>
<path opacity="0.02" d="M369.012 302.985H401.829V306.952H369.012V302.985Z" fill="#E6E6E6"/>
<path opacity="0.53" d="M369.012 312.125H401.829V316.091H369.012V312.125Z" fill="#E6E6E6"/>
<path opacity="0.65" d="M369.012 321.264H401.829V325.231H369.012V321.264Z" fill="#E6E6E6"/>
<path d="M369.012 330.404H401.829V334.37H369.012V330.404Z" fill="#E6E6E6"/>
<path opacity="0.8" d="M369.012 339.543H401.829V343.51H369.012V339.543Z" fill="#E6E6E6"/>
<path opacity="0.82" d="M369.012 348.683H401.829V352.649H369.012V348.683Z" fill="#E6E6E6"/>
<path opacity="0.75" d="M369.012 357.822H401.829V361.788H369.012V357.822Z" fill="#E6E6E6"/>
<path opacity="0.31" d="M369.012 366.962H401.829V370.928H369.012V366.962Z" fill="#E6E6E6"/>
<path opacity="0.22" d="M369.012 376.102H401.829V380.068H369.012V376.102Z" fill="#E6E6E6"/>
<path opacity="0.43" d="M369.012 385.241H401.829V389.208H369.012V385.241Z" fill="#E6E6E6"/>
<path opacity="0.68" d="M369.012 394.381H401.829V398.347H369.012V394.381Z" fill="#E6E6E6"/>
<path opacity="0.38" d="M369.012 403.52H401.829V407.487H369.012V403.52Z" fill="#E6E6E6"/>
<path opacity="0.84" d="M369.012 412.66H401.829V416.626H369.012V412.66Z" fill="#E6E6E6"/>
<path d="M477.999 217.28V229.006H421.519V217.28H477.999ZM465.39 225.213H471.262V221.246H465.39V225.213ZM456.236 225.213H461.936V221.246H456.236V225.213ZM446.909 225.213H452.609V221.246H446.909V225.213ZM437.582 225.213H443.454V221.246H437.582V225.213ZM428.255 225.213H434.128V221.246H428.255V225.213Z" fill="#333333"/>
<path d="M411.156 221.247H412.71V225.213H411.156V221.247Z" fill="#333333"/>
<path d="M421.519 217.28V229.006H394.92V217.28H421.519ZM411.156 225.213H416.856V221.246H411.156V225.213ZM398.893 225.213H404.592V221.246H398.893V225.213Z" fill="#4D4D4D"/>
<path d="M399.065 221.247H400.62V225.213H399.065V221.247Z" fill="#333333"/>
<path d="M394.575 465.255H512.024L394.575 378.688V465.255Z" fill="#333333"/>
<path d="M569.713 182.102H579.213V218.142H569.713V182.102Z" fill="#4D4D4D"/>
<path d="M579.04 182.102H588.712V218.142H579.04V182.102Z" fill="#333333"/>
<path d="M559.868 182.102H569.54V218.142H559.868V182.102Z" fill="#666666"/>
<path d="M531.887 242.802H558.832V448.356H531.887V242.802Z" fill="#666666"/>
<path d="M590.439 242.802H613.929V448.356H590.439V242.802Z" fill="#333333"/>
<path d="M558.832 242.802H590.612V448.356H558.832V242.802Z" fill="#4D4D4D"/>
<path opacity="0.6" d="M607.193 248.837H610.648V445.597H607.193V248.837Z" fill="#E6E6E6"/>
<path opacity="0.6" d="M600.457 248.837H603.912V445.597H600.457V248.837Z" fill="#E6E6E6"/>
<path opacity="0.6" d="M593.721 248.837H597.175V445.597H593.721V248.837Z" fill="#E6E6E6"/>
<path d="M553.477 248.837H556.932V445.597H553.477V248.837Z" fill="#E6E6E6"/>
<path d="M546.741 248.837H550.196V445.597H546.741V248.837Z" fill="#E6E6E6"/>
<path d="M533.615 248.837H537.069V445.597H533.615V248.837Z" fill="#E6E6E6"/>
<path d="M540.005 248.837H543.46V445.597H540.005V248.837Z" fill="#E6E6E6"/>
<path opacity="0.8" d="M586.64 445.597H562.804V248.837H586.64V445.597ZM582.84 252.286H566.604V442.148H582.84V252.286Z" fill="#E6E6E6"/>
<path opacity="0.8" d="M579.731 438.871H569.54V255.39H579.731V438.871ZM576.276 259.701H575.067H574.376H572.995V434.56H574.376H575.067H576.276V259.701Z" fill="#E6E6E6"/>
<path opacity="0.8" d="M574.376 259.701H575.067V434.56H574.376V259.701Z" fill="#E6E6E6"/>
<path d="M562.459 206.761H586.294V242.802H562.459V206.761Z" fill="#4D4D4D"/>
<path d="M562.459 206.761H586.294V242.802H562.459V206.761Z" fill="#4D4D4D"/>
<path d="M538.623 206.761H562.459V242.802H538.623V206.761Z" fill="#666666"/>
<path d="M586.294 206.761H610.13V242.802H586.294V206.761Z" fill="#333333"/>
<path d="M560.041 182.102H588.712L579.213 188.654H569.54L560.041 182.102Z" fill="#808080"/>
<path d="M47.5796 168.823H61.3971V209.348H47.5796V168.823Z" fill="#4D4D4D"/>
<path d="M61.5701 168.823H75.3877V209.348H61.5701V168.823Z" fill="#333333"/>
<path d="M33.7618 168.823H47.5796V209.348H33.7618V168.823Z" fill="#666666"/>
<path d="M-7 237.284H32.0347V468.877H-7V237.284Z" fill="#666666"/>
<path d="M77.9785 237.284H111.832V468.877H77.9785V237.284Z" fill="#333333"/>
<path d="M32.0348 237.284H77.9784V468.877H32.0348V237.284Z" fill="#4D4D4D"/>
<path opacity="0.4" d="M102.159 244.181H107.168V465.772H102.159V244.181Z" fill="#E6E6E6"/>
<path opacity="0.4" d="M92.3141 244.181H97.3231V465.772H92.3141V244.181Z" fill="#E6E6E6"/>
<path opacity="0.4" d="M82.469 244.181H87.478V465.772H82.469V244.181Z" fill="#E6E6E6"/>
<path d="M24.2623 244.181H29.2712V465.772H24.2623V244.181Z" fill="#E6E6E6"/>
<path d="M14.4172 244.181H19.4263V465.772H14.4172V244.181Z" fill="#E6E6E6"/>
<path d="M-4.40918 244.181H0.599731V465.772H-4.40918V244.181Z" fill="#E6E6E6"/>
<path d="M4.74487 244.181H9.75391V465.772H4.74487V244.181Z" fill="#E6E6E6"/>
<path d="M72.106 465.772H37.5618V244.181H72.106V465.772ZM66.7516 247.975H43.2615V461.979H66.7516V247.975Z" fill="#E6E6E6"/>
<path d="M62.4336 458.357H47.5796V251.597H62.4336V458.357ZM57.252 256.425H55.352H54.4884H52.5885V453.529H54.4884H55.352H57.252V256.425Z" fill="#E6E6E6"/>
<path d="M54.4884 256.425H55.3519V453.529H54.4884V256.425Z" fill="#E6E6E6"/>
<path d="M37.2163 196.759H71.7605V237.284H37.2163V196.759Z" fill="#4D4D4D"/>
<path d="M37.2163 196.759H71.7605V237.284H37.2163V196.759Z" fill="#4D4D4D"/>
<path d="M2.67236 196.759H37.2163V237.284H2.67236V196.759Z" fill="#666666"/>
<path d="M71.5876 196.759H106.132V237.284H71.5876V196.759Z" fill="#333333"/>
<path d="M33.5894 168.823H75.3877L61.3973 176.238H47.5797L33.5894 168.823Z" fill="#808080"/>
<path d="M147.239 269.358H241.717V300.743H147.239V269.358Z" fill="#E6E6E6"/>
<path d="M204.582 269.358H241.717V300.743H204.582V269.358Z" fill="#B3B3B3"/>
<path d="M204.582 300.915H277.989V453.356H204.582V300.915Z" fill="#333333"/>
<path d="M89.8961 300.915H204.582V453.356H89.8961V300.915Z" fill="#4D4D4D"/>
<path d="M213.564 285.395H270.043V300.915H213.564V285.395Z" fill="#333333"/>
<path d="M106.995 285.395H187.656V300.915H106.995V285.395Z" fill="#4D4D4D"/>
<path d="M172.284 257.459H204.582V269.358H172.284V257.459Z" fill="#E6E6E6"/>
<path d="M188.519 245.388H204.582V257.287H188.519V245.388Z" fill="#4D4D4D"/>
<path d="M204.755 245.388H220.818V257.287H204.755V245.388Z" fill="#333333"/>
<path d="M204.582 257.459H229.281V269.358H204.582V257.459Z" fill="#B3B3B3"/>
<path d="M205.619 245.388L204.582 217.797L203.719 245.388H205.619Z" fill="#333333"/>
<path opacity="0.12" d="M254.844 307.123H260.889V313.159H254.844V307.123Z" fill="white"/>
<path opacity="0.25" d="M246.553 307.123H252.599V313.159H246.553V307.123Z" fill="white"/>
<path opacity="0.36" d="M238.263 307.123H244.308V313.159H238.263V307.123Z" fill="white"/>
<path opacity="0.12" d="M229.972 307.123H236.018V313.159H229.972V307.123Z" fill="white"/>
<path opacity="0.14" d="M221.682 307.123H227.727V313.159H221.682V307.123Z" fill="white"/>
<path opacity="0.28" d="M254.844 315.055H260.889V321.091H254.844V315.055Z" fill="white"/>
<path opacity="0.4" d="M246.553 315.055H252.599V321.091H246.553V315.055Z" fill="white"/>
<path opacity="0.16" d="M238.263 315.055H244.308V321.091H238.263V315.055Z" fill="white"/>
<path opacity="0.17" d="M221.682 315.055H227.727V321.091H221.682V315.055Z" fill="white"/>
<path opacity="0.27" d="M254.844 322.988H260.889V329.023H254.844V322.988Z" fill="white"/>
<path opacity="0.45" d="M246.553 322.988H252.599V329.023H246.553V322.988Z" fill="white"/>
<path opacity="0.45" d="M238.263 322.988H244.308V329.023H238.263V322.988Z" fill="white"/>
<path opacity="0.48" d="M229.972 322.988H236.018V329.023H229.972V322.988Z" fill="white"/>
<path opacity="0.25" d="M221.682 322.988H227.727V329.023H221.682V322.988Z" fill="white"/>
<path opacity="0.28" d="M254.844 330.92H260.889V336.956H254.844V330.92Z" fill="white"/>
<path opacity="0.13" d="M246.553 330.92H252.599V336.956H246.553V330.92Z" fill="white"/>
<path opacity="0.07" d="M238.263 330.92H244.308V336.956H238.263V330.92Z" fill="white"/>
<path opacity="0.39" d="M229.972 330.92H236.018V336.956H229.972V330.92Z" fill="white"/>
<path opacity="0.47" d="M221.682 330.92H227.727V336.956H221.682V330.92Z" fill="white"/>
<path opacity="0.28" d="M254.844 338.853H260.889V344.888H254.844V338.853Z" fill="white"/>
<path opacity="0.2" d="M246.553 338.853H252.599V344.888H246.553V338.853Z" fill="white"/>
<path opacity="0.04" d="M238.263 338.853H244.308V344.888H238.263V338.853Z" fill="white"/>
<path opacity="0.43" d="M229.972 338.853H236.018V344.888H229.972V338.853Z" fill="white"/>
<path opacity="0.48" d="M221.682 338.853H227.727V344.888H221.682V338.853Z" fill="white"/>
<path opacity="0.28" d="M254.844 346.785H260.889V352.821H254.844V346.785Z" fill="white"/>
<path opacity="0.19" d="M246.553 346.785H252.599V352.821H246.553V346.785Z" fill="white"/>
<path opacity="0.01" d="M238.263 346.785H244.308V352.821H238.263V346.785Z" fill="white"/>
<path opacity="0.27" d="M229.972 346.785H236.018V352.821H229.972V346.785Z" fill="white"/>
<path opacity="0.24" d="M221.682 346.785H227.727V352.821H221.682V346.785Z" fill="white"/>
<path opacity="0.07" d="M254.844 354.89H260.889V360.926H254.844V354.89Z" fill="white"/>
<path opacity="0.25" d="M246.553 354.89H252.599V360.926H246.553V354.89Z" fill="white"/>
<path opacity="0.26" d="M238.263 354.89H244.308V360.926H238.263V354.89Z" fill="white"/>
<path opacity="0.39" d="M229.972 354.89H236.018V360.926H229.972V354.89Z" fill="white"/>
<path opacity="0.22" d="M221.682 354.89H227.727V360.926H221.682V354.89Z" fill="white"/>
<path opacity="0.15" d="M254.844 362.822H260.889V368.858H254.844V362.822Z" fill="white"/>
<path opacity="0.23" d="M246.553 362.822H252.599V368.858H246.553V362.822Z" fill="white"/>
<path opacity="0.05" d="M238.263 362.822H244.308V368.858H238.263V362.822Z" fill="white"/>
<path opacity="0.2" d="M229.972 362.822H236.018V368.858H229.972V362.822Z" fill="white"/>
<path opacity="0.31" d="M221.682 362.822H227.727V368.858H221.682V362.822Z" fill="white"/>
<path opacity="0.15" d="M254.844 370.755H260.889V376.79H254.844V370.755Z" fill="white"/>
<path opacity="0.33" d="M246.553 370.755H252.599V376.79H246.553V370.755Z" fill="white"/>
<path opacity="0.46" d="M238.263 370.755H244.308V376.79H238.263V370.755Z" fill="white"/>
<path opacity="0.25" d="M229.972 370.755H236.018V376.79H229.972V370.755Z" fill="white"/>
<path opacity="0.43" d="M221.682 370.755H227.727V376.79H221.682V370.755Z" fill="white"/>
<path opacity="0.4" d="M254.844 378.687H260.889V384.723H254.844V378.687Z" fill="white"/>
<path opacity="0.39" d="M246.553 378.687H252.599V384.723H246.553V378.687Z" fill="white"/>
<path opacity="0.01" d="M238.263 378.687H244.308V384.723H238.263V378.687Z" fill="white"/>
<path opacity="0.12" d="M229.972 378.687H236.018V384.723H229.972V378.687Z" fill="white"/>
<path opacity="0.07" d="M221.682 378.687H227.727V384.723H221.682V378.687Z" fill="white"/>
<path opacity="0.07" d="M254.844 386.62H260.889V392.656H254.844V386.62Z" fill="white"/>
<path opacity="0.02" d="M246.553 386.62H252.599V392.656H246.553V386.62Z" fill="white"/>
<path opacity="0.12" d="M238.263 386.62H244.308V392.656H238.263V386.62Z" fill="white"/>
<path opacity="0.23" d="M229.972 386.62H236.018V392.656H229.972V386.62Z" fill="white"/>
<path opacity="0.26" d="M221.682 386.62H227.727V392.656H221.682V386.62Z" fill="white"/>
<path opacity="0.27" d="M254.844 394.552H260.889V400.588H254.844V394.552Z" fill="white"/>
<path opacity="0.38" d="M246.553 394.552H252.599V400.588H246.553V394.552Z" fill="white"/>
<path opacity="0.05" d="M238.263 394.552H244.308V400.588H238.263V394.552Z" fill="white"/>
<path opacity="0.45" d="M229.972 394.552H236.018V400.588H229.972V394.552Z" fill="white"/>
<path opacity="0.15" d="M221.682 394.552H227.727V400.588H221.682V394.552Z" fill="white"/>
<path opacity="0.06" d="M254.844 402.485H260.889V408.52H254.844V402.485Z" fill="white"/>
<path opacity="0.47" d="M246.553 402.485H252.599V408.52H246.553V402.485Z" fill="white"/>
<path opacity="0.15" d="M238.263 402.485H244.308V408.52H238.263V402.485Z" fill="white"/>
<path opacity="0.44" d="M229.972 402.485H236.018V408.52H229.972V402.485Z" fill="white"/>
<path opacity="0.14" d="M221.682 402.485H227.727V408.52H221.682V402.485Z" fill="white"/>
<path opacity="0.15" d="M254.844 410.417H260.889V416.453H254.844V410.417Z" fill="white"/>
<path opacity="0.43" d="M246.553 410.417H252.599V416.453H246.553V410.417Z" fill="white"/>
<path opacity="0.07" d="M238.263 410.417H244.308V416.453H238.263V410.417Z" fill="white"/>
<path opacity="0.47" d="M229.972 410.417H236.018V416.453H229.972V410.417Z" fill="white"/>
<path opacity="0.11" d="M221.682 410.417H227.727V416.453H221.682V410.417Z" fill="white"/>
<path opacity="0.07" d="M254.844 418.35H260.889V424.385H254.844V418.35Z" fill="white"/>
<path opacity="0.34" d="M246.553 418.35H252.599V424.385H246.553V418.35Z" fill="white"/>
<path opacity="0.5" d="M238.263 418.35H244.308V424.385H238.263V418.35Z" fill="white"/>
<path opacity="0.36" d="M229.972 418.35H236.018V424.385H229.972V418.35Z" fill="white"/>
<path opacity="0.34" d="M221.682 418.35H227.727V424.385H221.682V418.35Z" fill="white"/>
<path opacity="0.47" d="M254.844 426.282H260.889V432.318H254.844V426.282Z" fill="white"/>
<path opacity="0.41" d="M246.553 426.282H252.599V432.318H246.553V426.282Z" fill="white"/>
<path opacity="0.3" d="M238.263 426.282H244.308V432.318H238.263V426.282Z" fill="white"/>
<path opacity="0.33" d="M229.972 426.282H236.018V432.318H229.972V426.282Z" fill="white"/>
<path opacity="0.12" d="M221.682 426.282H227.727V432.318H221.682V426.282Z" fill="white"/>
<path opacity="0.24" d="M254.844 434.214H260.889V440.25H254.844V434.214Z" fill="white"/>
<path opacity="0.29" d="M246.553 434.214H252.599V440.25H246.553V434.214Z" fill="white"/>
<path opacity="0.27" d="M229.972 434.214H236.018V440.25H229.972V434.214Z" fill="white"/>
<path opacity="0.04" d="M221.682 434.214H227.727V440.25H221.682V434.214Z" fill="white"/>
<path opacity="0.11" d="M254.844 442.147H260.889V448.182H254.844V442.147Z" fill="white"/>
<path opacity="0.05" d="M246.553 442.147H252.599V448.182H246.553V442.147Z" fill="white"/>
<path opacity="0.04" d="M238.263 442.147H244.308V448.182H238.263V442.147Z" fill="white"/>
<path opacity="0.02" d="M229.972 442.147H236.018V448.182H229.972V442.147Z" fill="white"/>
<path opacity="0.3" d="M184.547 307.123H190.592V313.159H184.547V307.123Z" fill="white"/>
<path opacity="0.72" d="M176.602 307.123H182.647V313.159H176.602V307.123Z" fill="white"/>
<path opacity="0.7" d="M168.484 307.123H174.529V313.159H168.484V307.123Z" fill="white"/>
<path opacity="0.52" d="M160.366 307.123H166.411V313.159H160.366V307.123Z" fill="white"/>
<path opacity="0.2" d="M152.248 307.123H158.294V313.159H152.248V307.123Z" fill="white"/>
<path opacity="0.32" d="M144.303 307.123H150.348V313.159H144.303V307.123Z" fill="white"/>
<path opacity="0.13" d="M136.185 307.123H142.23V313.159H136.185V307.123Z" fill="white"/>
<path opacity="0.38" d="M128.067 307.123H134.113V313.159H128.067V307.123Z" fill="white"/>
<path opacity="0.61" d="M120.122 307.123H126.167V313.159H120.122V307.123Z" fill="white"/>
<path d="M112.004 307.123H118.05V313.159H112.004V307.123Z" fill="white"/>
<path opacity="0.91" d="M103.887 307.123H109.932V313.159H103.887V307.123Z" fill="white"/>
<path opacity="0.66" d="M184.547 315.055H190.592V321.091H184.547V315.055Z" fill="white"/>
<path opacity="0.31" d="M176.602 315.055H182.647V321.091H176.602V315.055Z" fill="white"/>
<path opacity="0.95" d="M168.484 315.055H174.529V321.091H168.484V315.055Z" fill="white"/>
<path opacity="0.7" d="M160.366 315.055H166.411V321.091H160.366V315.055Z" fill="white"/>
<path opacity="0.12" d="M152.248 315.055H158.294V321.091H152.248V315.055Z" fill="white"/>
<path opacity="0.24" d="M144.303 315.055H150.348V321.091H144.303V315.055Z" fill="white"/>
<path opacity="0.66" d="M136.185 315.055H142.23V321.091H136.185V315.055Z" fill="white"/>
<path opacity="0.71" d="M128.067 315.055H134.113V321.091H128.067V315.055Z" fill="white"/>
<path opacity="0.42" d="M120.122 315.055H126.167V321.091H120.122V315.055Z" fill="white"/>
<path opacity="0.09" d="M112.004 315.055H118.05V321.091H112.004V315.055Z" fill="white"/>
<path opacity="0.32" d="M103.887 315.055H109.932V321.091H103.887V315.055Z" fill="white"/>
<path opacity="0.65" d="M184.547 322.988H190.592V329.023H184.547V322.988Z" fill="white"/>
<path d="M176.602 322.988H182.647V329.023H176.602V322.988Z" fill="white"/>
<path d="M168.484 322.988H174.529V329.023H168.484V322.988Z" fill="white"/>
<path opacity="0.71" d="M160.366 322.988H166.411V329.023H160.366V322.988Z" fill="white"/>
<path opacity="0.2" d="M152.248 322.988H158.294V329.023H152.248V322.988Z" fill="white"/>
<path opacity="0.19" d="M144.303 322.988H150.348V329.023H144.303V322.988Z" fill="white"/>
<path opacity="0.62" d="M136.185 322.988H142.23V329.023H136.185V322.988Z" fill="white"/>
<path opacity="0.93" d="M128.067 322.988H134.113V329.023H128.067V322.988Z" fill="white"/>
<path opacity="0.56" d="M120.122 322.988H126.167V329.023H120.122V322.988Z" fill="white"/>
<path opacity="0.57" d="M112.004 322.988H118.05V329.023H112.004V322.988Z" fill="white"/>
<path opacity="0.52" d="M103.887 322.988H109.932V329.023H103.887V322.988Z" fill="white"/>
<path opacity="0.74" d="M184.547 330.92H190.592V336.956H184.547V330.92Z" fill="white"/>
<path opacity="0.56" d="M176.602 330.92H182.647V336.956H176.602V330.92Z" fill="white"/>
<path opacity="0.78" d="M168.484 330.92H174.529V336.956H168.484V330.92Z" fill="white"/>
<path opacity="0.41" d="M160.366 330.92H166.411V336.956H160.366V330.92Z" fill="white"/>
<path opacity="0.14" d="M152.248 330.92H158.294V336.956H152.248V330.92Z" fill="white"/>
<path opacity="0.28" d="M144.303 330.92H150.348V336.956H144.303V330.92Z" fill="white"/>
<path opacity="0.36" d="M136.185 330.92H142.23V336.956H136.185V330.92Z" fill="white"/>
<path opacity="0.14" d="M128.067 330.92H134.113V336.956H128.067V330.92Z" fill="white"/>
<path opacity="0.5" d="M120.122 330.92H126.167V336.956H120.122V330.92Z" fill="white"/>
<path opacity="0.98" d="M112.004 330.92H118.05V336.956H112.004V330.92Z" fill="white"/>
<path opacity="0.59" d="M103.887 330.92H109.932V336.956H103.887V330.92Z" fill="white"/>
<path opacity="0.07" d="M184.547 338.853H190.592V344.888H184.547V338.853Z" fill="white"/>
<path opacity="0.1" d="M176.602 338.853H182.647V344.888H176.602V338.853Z" fill="white"/>
<path opacity="0.88" d="M168.484 338.853H174.529V344.888H168.484V338.853Z" fill="white"/>
<path opacity="0.68" d="M160.366 338.853H166.411V344.888H160.366V338.853Z" fill="white"/>
<path opacity="0.81" d="M152.248 338.853H158.294V344.888H152.248V338.853Z" fill="white"/>
<path opacity="0.62" d="M144.303 338.853H150.348V344.888H144.303V338.853Z" fill="white"/>
<path opacity="0.97" d="M136.185 338.853H142.23V344.888H136.185V338.853Z" fill="white"/>
<path opacity="0.81" d="M128.067 338.853H134.113V344.888H128.067V338.853Z" fill="white"/>
<path opacity="0.79" d="M120.122 338.853H126.167V344.888H120.122V338.853Z" fill="white"/>
<path opacity="0.03" d="M112.004 338.853H118.05V344.888H112.004V338.853Z" fill="white"/>
<path opacity="0.95" d="M103.887 338.853H109.932V344.888H103.887V338.853Z" fill="white"/>
<path opacity="0.62" d="M184.547 346.785H190.592V352.821H184.547V346.785Z" fill="white"/>
<path opacity="0.22" d="M176.602 346.785H182.647V352.821H176.602V346.785Z" fill="white"/>
<path opacity="0.42" d="M168.484 346.785H174.529V352.821H168.484V346.785Z" fill="white"/>
<path opacity="0.56" d="M160.366 346.785H166.411V352.821H160.366V346.785Z" fill="white"/>
<path opacity="0.03" d="M152.248 346.785H158.294V352.821H152.248V346.785Z" fill="white"/>
<path opacity="0.64" d="M144.303 346.785H150.348V352.821H144.303V346.785Z" fill="white"/>
<path opacity="0.82" d="M136.185 346.785H142.23V352.821H136.185V346.785Z" fill="white"/>
<path opacity="0.52" d="M128.067 346.785H134.113V352.821H128.067V346.785Z" fill="white"/>
<path opacity="0.46" d="M120.122 346.785H126.167V352.821H120.122V346.785Z" fill="white"/>
<path opacity="0.27" d="M112.004 346.785H118.05V352.821H112.004V346.785Z" fill="white"/>
<path opacity="0.46" d="M103.887 346.785H109.932V352.821H103.887V346.785Z" fill="white"/>
<path opacity="0.66" d="M184.547 354.89H190.592V360.926H184.547V354.89Z" fill="white"/>
<path opacity="0.7" d="M176.602 354.89H182.647V360.926H176.602V354.89Z" fill="white"/>
<path opacity="0.94" d="M168.484 354.89H174.529V360.926H168.484V354.89Z" fill="white"/>
<path opacity="0.5" d="M160.366 354.89H166.411V360.926H160.366V354.89Z" fill="white"/>
<path opacity="0.12" d="M152.248 354.89H158.294V360.926H152.248V354.89Z" fill="white"/>
<path opacity="0.36" d="M144.303 354.89H150.348V360.926H144.303V354.89Z" fill="white"/>
<path opacity="0.51" d="M136.185 354.89H142.23V360.926H136.185V354.89Z" fill="white"/>
<path opacity="0.37" d="M128.067 354.89H134.113V360.926H128.067V354.89Z" fill="white"/>
<path opacity="0.66" d="M120.122 354.89H126.167V360.926H120.122V354.89Z" fill="white"/>
<path opacity="0.42" d="M112.004 354.89H118.05V360.926H112.004V354.89Z" fill="white"/>
<path opacity="0.5" d="M103.887 354.89H109.932V360.926H103.887V354.89Z" fill="white"/>
<path opacity="0.52" d="M184.547 362.822H190.592V368.858H184.547V362.822Z" fill="white"/>
<path opacity="0.61" d="M176.602 362.822H182.647V368.858H176.602V362.822Z" fill="white"/>
<path opacity="0.84" d="M168.484 362.822H174.529V368.858H168.484V362.822Z" fill="white"/>
<path opacity="0.89" d="M160.366 362.822H166.411V368.858H160.366V362.822Z" fill="white"/>
<path opacity="0.33" d="M152.248 362.822H158.294V368.858H152.248V362.822Z" fill="white"/>
<path opacity="0.25" d="M144.303 362.822H150.348V368.858H144.303V362.822Z" fill="white"/>
<path opacity="0.95" d="M136.185 362.822H142.23V368.858H136.185V362.822Z" fill="white"/>
<path opacity="0.09" d="M128.067 362.822H134.113V368.858H128.067V362.822Z" fill="white"/>
<path opacity="0.44" d="M120.122 362.822H126.167V368.858H120.122V362.822Z" fill="white"/>
<path opacity="0.51" d="M112.004 362.822H118.05V368.858H112.004V362.822Z" fill="white"/>
<path opacity="0.97" d="M103.887 362.822H109.932V368.858H103.887V362.822Z" fill="white"/>
<path opacity="0.26" d="M184.547 370.755H190.592V376.79H184.547V370.755Z" fill="white"/>
<path opacity="0.92" d="M176.602 370.755H182.647V376.79H176.602V370.755Z" fill="white"/>
<path opacity="0.33" d="M168.484 370.755H174.529V376.79H168.484V370.755Z" fill="white"/>
<path opacity="0.23" d="M160.366 370.755H166.411V376.79H160.366V370.755Z" fill="white"/>
<path opacity="0.42" d="M152.248 370.755H158.294V376.79H152.248V370.755Z" fill="white"/>
<path opacity="0.57" d="M144.303 370.755H150.348V376.79H144.303V370.755Z" fill="white"/>
<path opacity="0.73" d="M136.185 370.755H142.23V376.79H136.185V370.755Z" fill="white"/>
<path opacity="0.87" d="M128.067 370.755H134.113V376.79H128.067V370.755Z" fill="white"/>
<path opacity="0.22" d="M120.122 370.755H126.167V376.79H120.122V370.755Z" fill="white"/>
<path opacity="0.89" d="M112.004 370.755H118.05V376.79H112.004V370.755Z" fill="white"/>
<path opacity="0.73" d="M103.887 370.755H109.932V376.79H103.887V370.755Z" fill="white"/>
<path opacity="0.35" d="M184.547 378.687H190.592V384.723H184.547V378.687Z" fill="white"/>
<path opacity="0.81" d="M176.602 378.687H182.647V384.723H176.602V378.687Z" fill="white"/>
<path opacity="0.56" d="M168.484 378.687H174.529V384.723H168.484V378.687Z" fill="white"/>
<path opacity="0.81" d="M160.366 378.687H166.411V384.723H160.366V378.687Z" fill="white"/>
<path opacity="0.87" d="M152.248 378.687H158.294V384.723H152.248V378.687Z" fill="white"/>
<path opacity="0.39" d="M144.303 378.687H150.348V384.723H144.303V378.687Z" fill="white"/>
<path opacity="0.31" d="M136.185 378.687H142.23V384.723H136.185V378.687Z" fill="white"/>
<path opacity="0.98" d="M128.067 378.687H134.113V384.723H128.067V378.687Z" fill="white"/>
<path opacity="0.17" d="M120.122 378.687H126.167V384.723H120.122V378.687Z" fill="white"/>
<path opacity="0.06" d="M112.004 378.687H118.05V384.723H112.004V378.687Z" fill="white"/>
<path opacity="0.57" d="M103.887 378.687H109.932V384.723H103.887V378.687Z" fill="white"/>
<path opacity="0.67" d="M184.547 386.62H190.592V392.656H184.547V386.62Z" fill="white"/>
<path opacity="0.83" d="M176.602 386.62H182.647V392.656H176.602V386.62Z" fill="white"/>
<path opacity="0.99" d="M168.484 386.62H174.529V392.656H168.484V386.62Z" fill="white"/>
<path opacity="0.62" d="M160.366 386.62H166.411V392.656H160.366V386.62Z" fill="white"/>
<path opacity="0.87" d="M152.248 386.62H158.294V392.656H152.248V386.62Z" fill="white"/>
<path opacity="0.14" d="M144.303 386.62H150.348V392.656H144.303V386.62Z" fill="white"/>
<path opacity="0.12" d="M136.185 386.62H142.23V392.656H136.185V386.62Z" fill="white"/>
<path opacity="0.11" d="M128.067 386.62H134.113V392.656H128.067V386.62Z" fill="white"/>
<path opacity="0.39" d="M120.122 386.62H126.167V392.656H120.122V386.62Z" fill="white"/>
<path opacity="0.58" d="M112.004 386.62H118.05V392.656H112.004V386.62Z" fill="white"/>
<path opacity="0.54" d="M103.887 386.62H109.932V392.656H103.887V386.62Z" fill="white"/>
<path opacity="0.99" d="M184.547 394.552H190.592V400.588H184.547V394.552Z" fill="white"/>
<path opacity="0.28" d="M176.602 394.552H182.647V400.588H176.602V394.552Z" fill="white"/>
<path opacity="0.78" d="M168.484 394.552H174.529V400.588H168.484V394.552Z" fill="white"/>
<path opacity="0.65" d="M160.366 394.552H166.411V400.588H160.366V394.552Z" fill="white"/>
<path opacity="0.32" d="M152.248 394.552H158.294V400.588H152.248V394.552Z" fill="white"/>
<path opacity="0.55" d="M144.303 394.552H150.348V400.588H144.303V394.552Z" fill="white"/>
<path opacity="0.4" d="M136.185 394.552H142.23V400.588H136.185V394.552Z" fill="white"/>
<path opacity="0.22" d="M128.067 394.552H134.113V400.588H128.067V394.552Z" fill="white"/>
<path opacity="0.87" d="M120.122 394.552H126.167V400.588H120.122V394.552Z" fill="white"/>
<path opacity="0.02" d="M112.004 394.552H118.05V400.588H112.004V394.552Z" fill="white"/>
<path opacity="0.39" d="M103.887 394.552H109.932V400.588H103.887V394.552Z" fill="white"/>
<path opacity="0.89" d="M184.547 402.485H190.592V408.52H184.547V402.485Z" fill="white"/>
<path opacity="0.97" d="M176.602 402.485H182.647V408.52H176.602V402.485Z" fill="white"/>
<path opacity="0.79" d="M168.484 402.485H174.529V408.52H168.484V402.485Z" fill="white"/>
<path opacity="0.41" d="M160.366 402.485H166.411V408.52H160.366V402.485Z" fill="white"/>
<path opacity="0.13" d="M152.248 402.485H158.294V408.52H152.248V402.485Z" fill="white"/>
<path opacity="0.9" d="M144.303 402.485H150.348V408.52H144.303V402.485Z" fill="white"/>
<path opacity="0.98" d="M136.185 402.485H142.23V408.52H136.185V402.485Z" fill="white"/>
<path opacity="0.67" d="M128.067 402.485H134.113V408.52H128.067V402.485Z" fill="white"/>
<path opacity="0.65" d="M120.122 402.485H126.167V408.52H120.122V402.485Z" fill="white"/>
<path opacity="0.89" d="M112.004 402.485H118.05V408.52H112.004V402.485Z" fill="white"/>
<path opacity="0.98" d="M103.887 402.485H109.932V408.52H103.887V402.485Z" fill="white"/>
<path opacity="0.29" d="M184.547 410.417H190.592V416.453H184.547V410.417Z" fill="white"/>
<path opacity="0.74" d="M176.602 410.417H182.647V416.453H176.602V410.417Z" fill="white"/>
<path opacity="0.64" d="M168.484 410.417H174.529V416.453H168.484V410.417Z" fill="white"/>
<path opacity="0.65" d="M160.366 410.417H166.411V416.453H160.366V410.417Z" fill="white"/>
<path opacity="0.07" d="M152.248 410.417H158.294V416.453H152.248V410.417Z" fill="white"/>
<path opacity="0.16" d="M144.303 410.417H150.348V416.453H144.303V410.417Z" fill="white"/>
<path opacity="0.84" d="M136.185 410.417H142.23V416.453H136.185V410.417Z" fill="white"/>
<path opacity="0.88" d="M128.067 410.417H134.113V416.453H128.067V410.417Z" fill="white"/>
<path opacity="0.57" d="M120.122 410.417H126.167V416.453H120.122V410.417Z" fill="white"/>
<path opacity="0.31" d="M112.004 410.417H118.05V416.453H112.004V410.417Z" fill="white"/>
<path opacity="0.03" d="M103.887 410.417H109.932V416.453H103.887V410.417Z" fill="white"/>
<path opacity="0.3" d="M184.547 418.35H190.592V424.385H184.547V418.35Z" fill="white"/>
<path opacity="0.59" d="M176.602 418.35H182.647V424.385H176.602V418.35Z" fill="white"/>
<path opacity="0.93" d="M168.484 418.35H174.529V424.385H168.484V418.35Z" fill="white"/>
<path opacity="0.06" d="M160.366 418.35H166.411V424.385H160.366V418.35Z" fill="white"/>
<path opacity="0.74" d="M152.248 418.35H158.294V424.385H152.248V418.35Z" fill="white"/>
<path opacity="0.22" d="M144.303 418.35H150.348V424.385H144.303V418.35Z" fill="white"/>
<path opacity="0.51" d="M136.185 418.35H142.23V424.385H136.185V418.35Z" fill="white"/>
<path opacity="0.7" d="M128.067 418.35H134.113V424.385H128.067V418.35Z" fill="white"/>
<path opacity="0.47" d="M120.122 418.35H126.167V424.385H120.122V418.35Z" fill="white"/>
<path opacity="0.08" d="M112.004 418.35H118.05V424.385H112.004V418.35Z" fill="white"/>
<path opacity="0.93" d="M103.887 418.35H109.932V424.385H103.887V418.35Z" fill="white"/>
<path opacity="0.81" d="M184.547 426.282H190.592V432.318H184.547V426.282Z" fill="white"/>
<path opacity="0.9" d="M176.602 426.282H182.647V432.318H176.602V426.282Z" fill="white"/>
<path opacity="0.55" d="M168.484 426.282H174.529V432.318H168.484V426.282Z" fill="white"/>
<path opacity="0.14" d="M160.366 426.282H166.411V432.318H160.366V426.282Z" fill="white"/>
<path opacity="0.66" d="M152.248 426.282H158.294V432.318H152.248V426.282Z" fill="white"/>
<path opacity="0.92" d="M144.303 426.282H150.348V432.318H144.303V426.282Z" fill="white"/>
<path opacity="0.4" d="M136.185 426.282H142.23V432.318H136.185V426.282Z" fill="white"/>
<path opacity="0.6" d="M128.067 426.282H134.113V432.318H128.067V426.282Z" fill="white"/>
<path opacity="0.99" d="M120.122 426.282H126.167V432.318H120.122V426.282Z" fill="white"/>
<path opacity="0.68" d="M112.004 426.282H118.05V432.318H112.004V426.282Z" fill="white"/>
<path opacity="0.01" d="M103.887 426.282H109.932V432.318H103.887V426.282Z" fill="white"/>
<path opacity="0.82" d="M184.547 434.214H190.592V440.25H184.547V434.214Z" fill="white"/>
<path opacity="0.92" d="M176.602 434.214H182.647V440.25H176.602V434.214Z" fill="white"/>
<path opacity="0.29" d="M168.484 434.214H174.529V440.25H168.484V434.214Z" fill="white"/>
<path opacity="0.73" d="M160.366 434.214H166.411V440.25H160.366V434.214Z" fill="white"/>
<path opacity="0.42" d="M152.248 434.214H158.294V440.25H152.248V434.214Z" fill="white"/>
<path opacity="0.06" d="M144.303 434.214H150.348V440.25H144.303V434.214Z" fill="white"/>
<path opacity="0.7" d="M136.185 434.214H142.23V440.25H136.185V434.214Z" fill="white"/>
<path opacity="0.97" d="M128.067 434.214H134.113V440.25H128.067V434.214Z" fill="white"/>
<path opacity="0.51" d="M120.122 434.214H126.167V440.25H120.122V434.214Z" fill="white"/>
<path opacity="0.69" d="M112.004 434.214H118.05V440.25H112.004V434.214Z" fill="white"/>
<path opacity="0.49" d="M103.887 434.214H109.932V440.25H103.887V434.214Z" fill="white"/>
<path opacity="0.45" d="M184.547 442.147H190.592V448.182H184.547V442.147Z" fill="white"/>
<path opacity="0.46" d="M176.602 442.147H182.647V448.182H176.602V442.147Z" fill="white"/>
<path opacity="0.04" d="M168.484 442.147H174.529V448.182H168.484V442.147Z" fill="white"/>
<path opacity="0.56" d="M160.366 442.147H166.411V448.182H160.366V442.147Z" fill="white"/>
<path opacity="0.4" d="M152.248 442.147H158.294V448.182H152.248V442.147Z" fill="white"/>
<path opacity="0.59" d="M144.303 442.147H150.348V448.182H144.303V442.147Z" fill="white"/>
<path opacity="0.82" d="M136.185 442.147H142.23V448.182H136.185V442.147Z" fill="white"/>
<path opacity="0.99" d="M128.067 442.147H134.113V448.182H128.067V442.147Z" fill="white"/>
<path opacity="0.1" d="M120.122 442.147H126.167V448.182H120.122V442.147Z" fill="white"/>
<path opacity="0.87" d="M112.004 442.147H118.05V448.182H112.004V442.147Z" fill="white"/>
<path d="M103.887 442.147H109.932V448.182H103.887V442.147Z" fill="white"/>
<path d="M286.625 268.324H343.622V446.631H286.625V268.324Z" fill="#333333"/>
<path d="M317.714 259.356H343.622V269.358H317.714V259.356Z" fill="#333333"/>
<path d="M328.596 253.493H343.622V259.356H328.596V253.493Z" fill="#333333"/>
<path opacity="0.25" d="M310.633 280.912H319.96V290.224H310.633V280.912Z" fill="white"/>
<path opacity="0.15" d="M310.633 303.847H319.96V313.159H310.633V303.847Z" fill="white"/>
<path opacity="0.19" d="M310.633 349.544H319.96V358.857H310.633V349.544Z" fill="white"/>
<path opacity="0.17" d="M310.633 372.307H319.96V381.619H310.633V372.307Z" fill="white"/>
<path opacity="0.22" d="M310.633 395.07H319.96V404.382H310.633V395.07Z" fill="white"/>
<path d="M310.633 418.005H319.96V427.317H310.633V418.005Z" fill="white"/>
<path d="M328.941 367.651H382.312V383.344H328.941V367.651Z" fill="#333333"/>
<path d="M302.342 367.651H328.941V383.344H302.342V367.651Z" fill="#4D4D4D"/>
<path d="M382.312 367.651L365.73 359.719L328.941 367.651H382.312Z" fill="#333333"/>
<path d="M365.73 359.719L328.941 367.651H302.342L365.73 359.719Z" fill="#4D4D4D"/>
<path d="M316.505 378.688H394.575V450.08H316.505V378.688Z" fill="#333333"/>
<path d="M290.597 378.688H316.505V450.08H290.597V378.688Z" fill="#4D4D4D"/>
<path opacity="0.81" d="M296.642 383.688H310.633V388.862H296.642V383.688Z" fill="white"/>
<path opacity="0.76" d="M296.642 393.173H310.633V398.346H296.642V393.173Z" fill="white"/>
<path opacity="0.32" d="M296.642 402.657H310.633V407.831H296.642V402.657Z" fill="white"/>
<path opacity="0.49" d="M296.642 412.314H310.633V417.488H296.642V412.314Z" fill="white"/>
<path opacity="0.99" d="M296.642 431.283H310.633V436.456H296.642V431.283Z" fill="white"/>
<path opacity="0.1" d="M368.148 383.688H382.139V388.862H368.148V383.688Z" fill="white"/>
<path opacity="0.04" d="M348.631 383.688H362.622V388.862H348.631V383.688Z" fill="white"/>
<path opacity="0.07" d="M328.941 383.688H342.931V388.862H328.941V383.688Z" fill="white"/>
<path opacity="0.06" d="M368.148 393.173H382.139V398.346H368.148V393.173Z" fill="white"/>
<path opacity="0.44" d="M348.631 393.173H362.622V398.346H348.631V393.173Z" fill="white"/>
<path opacity="0.24" d="M328.941 393.173H342.931V398.346H328.941V393.173Z" fill="white"/>
<path opacity="0.55" d="M368.148 402.657H382.139V407.831H368.148V402.657Z" fill="white"/>
<path opacity="0.02" d="M348.631 402.657H362.622V407.831H348.631V402.657Z" fill="white"/>
<path opacity="0.14" d="M328.941 402.657H342.931V407.831H328.941V402.657Z" fill="white"/>
<path opacity="0.43" d="M368.148 412.314H382.139V417.488H368.148V412.314Z" fill="white"/>
<path opacity="0.41" d="M348.631 412.314H362.622V417.488H348.631V412.314Z" fill="white"/>
<path opacity="0.46" d="M328.941 412.314H342.931V417.488H328.941V412.314Z" fill="white"/>
<path opacity="0.45" d="M368.148 421.799H382.139V426.972H368.148V421.799Z" fill="white"/>
<path opacity="0.33" d="M348.631 421.799H362.622V426.972H348.631V421.799Z" fill="white"/>
<path opacity="0.05" d="M328.941 421.799H342.931V426.972H328.941V421.799Z" fill="white"/>
<path opacity="0.27" d="M368.148 431.283H382.139V436.457H368.148V431.283Z" fill="white"/>
<path opacity="0.15" d="M348.631 431.283H362.622V436.457H348.631V431.283Z" fill="white"/>
<path opacity="0.7" d="M328.941 431.283H342.931V436.457H328.941V431.283Z" fill="white"/>
<path d="M696.317 307.296H744.679V456.115H696.317V307.296Z" fill="#333333"/>
<path d="M641.219 307.296H696.144V456.115H641.219V307.296Z" fill="#4D4D4D"/>
<path d="M696.317 319.885H744.679V322.471H696.317V319.885Z" fill="#4D4D4D"/>
<path d="M641.219 319.885H696.144V322.471H641.219V319.885Z" fill="#333333"/>
<path opacity="0.25" d="M714.28 325.403H719.462V330.576H714.28V325.403Z" fill="white"/>
<path opacity="0.12" d="M700.117 325.403H705.298V330.576H700.117V325.403Z" fill="white"/>
<path opacity="0.47" d="M714.28 332.473H719.462V337.646H714.28V332.473Z" fill="white"/>
<path opacity="0.22" d="M707.198 332.473H712.38V337.646H707.198V332.473Z" fill="white"/>
<path opacity="0.32" d="M700.117 332.473H705.298V337.646H700.117V332.473Z" fill="white"/>
<path opacity="0.28" d="M714.28 339.543H719.462V344.717H714.28V339.543Z" fill="white"/>
<path opacity="0.2" d="M700.117 339.543H705.298V344.717H700.117V339.543Z" fill="white"/>
<path opacity="0.05" d="M714.28 346.613H719.462V351.787H714.28V346.613Z" fill="white"/>
<path opacity="0.08" d="M707.198 346.613H712.38V351.787H707.198V346.613Z" fill="white"/>
<path opacity="0.08" d="M714.28 353.684H719.462V358.857H714.28V353.684Z" fill="white"/>
<path opacity="0.02" d="M707.198 353.684H712.38V358.857H707.198V353.684Z" fill="white"/>
<path opacity="0.2" d="M714.28 360.754H719.462V365.927H714.28V360.754Z" fill="white"/>
<path opacity="0.23" d="M707.198 360.754H712.38V365.927H707.198V360.754Z" fill="white"/>
<path opacity="0.24" d="M707.198 367.824H712.38V372.998H707.198V367.824Z" fill="white"/>
<path opacity="0.02" d="M714.28 374.894H719.462V380.068H714.28V374.894Z" fill="white"/>
<path opacity="0.04" d="M707.198 374.894H712.38V380.068H707.198V374.894Z" fill="white"/>
<path opacity="0.3" d="M700.117 374.894H705.298V380.068H700.117V374.894Z" fill="white"/>
<path opacity="0.4" d="M700.117 381.792H705.298V386.965H700.117V381.792Z" fill="white"/>
<path opacity="0.19" d="M707.198 388.863H712.38V394.036H707.198V388.863Z" fill="white"/>
<path opacity="0.43" d="M700.117 388.863H705.298V394.036H700.117V388.863Z" fill="white"/>
<path opacity="0.42" d="M714.28 395.933H719.462V401.106H714.28V395.933Z" fill="white"/>
<path opacity="0.31" d="M700.117 395.933H705.298V401.106H700.117V395.933Z" fill="white"/>
<path opacity="0.31" d="M714.28 403.003H719.462V408.176H714.28V403.003Z" fill="white"/>
<path opacity="0.33" d="M700.117 403.003H705.298V408.176H700.117V403.003Z" fill="white"/>
<path opacity="0.17" d="M714.28 410.073H719.462V415.246H714.28V410.073Z" fill="white"/>
<path opacity="0.01" d="M707.198 410.073H712.38V415.246H707.198V410.073Z" fill="white"/>
<path opacity="0.48" d="M700.117 410.073H705.298V415.246H700.117V410.073Z" fill="white"/>
<path opacity="0.02" d="M714.28 417.143H719.462V422.316H714.28V417.143Z" fill="white"/>
<path opacity="0.17" d="M707.198 417.143H712.38V422.316H707.198V417.143Z" fill="white"/>
<path opacity="0.42" d="M700.117 417.143H705.298V422.316H700.117V417.143Z" fill="white"/>
<path opacity="0.02" d="M714.28 424.213H719.462V429.387H714.28V424.213Z" fill="white"/>
<path opacity="0.3" d="M700.117 424.213H705.298V429.387H700.117V424.213Z" fill="white"/>
<path opacity="0.05" d="M714.28 431.284H719.462V436.457H714.28V431.284Z" fill="white"/>
<path opacity="0.2" d="M700.117 431.284H705.298V436.457H700.117V431.284Z" fill="white"/>
<path opacity="0.27" d="M714.28 438.354H719.462V443.527H714.28V438.354Z" fill="white"/>
<path opacity="0.13" d="M707.198 438.354H712.38V443.527H707.198V438.354Z" fill="white"/>
<path opacity="0.12" d="M714.28 445.424H719.462V450.597H714.28V445.424Z" fill="white"/>
<path opacity="0.04" d="M707.198 445.424H712.38V450.597H707.198V445.424Z" fill="white"/>
<path opacity="0.3" d="M700.117 445.424H705.298V450.597H700.117V445.424Z" fill="white"/>
<path opacity="0.08" d="M707.198 325.403H712.38V330.576H707.198V325.403Z" fill="white"/>
<path opacity="0.08" d="M707.198 339.543H712.38V344.717H707.198V339.543Z" fill="white"/>
<path opacity="0.01" d="M700.117 346.613H705.298V351.787H700.117V346.613Z" fill="white"/>
<path opacity="0.12" d="M700.117 353.684H705.298V358.857H700.117V353.684Z" fill="white"/>
<path opacity="0.13" d="M714.28 367.824H719.462V372.998H714.28V367.824Z" fill="white"/>
<path opacity="0.07" d="M700.117 367.824H705.298V372.998H700.117V367.824Z" fill="white"/>
<path opacity="0.02" d="M714.28 381.792H719.462V386.965H714.28V381.792Z" fill="white"/>
<path opacity="0.14" d="M707.198 381.792H712.38V386.965H707.198V381.792Z" fill="white"/>
<path opacity="0.02" d="M707.198 395.933H712.38V401.106H707.198V395.933Z" fill="white"/>
<path opacity="0.06" d="M707.198 403.003H712.38V408.176H707.198V403.003Z" fill="white"/>
<path opacity="0.04" d="M707.198 424.213H712.38V429.387H707.198V424.213Z" fill="white"/>
<path opacity="0.04" d="M707.198 431.284H712.38V436.457H707.198V431.284Z" fill="white"/>
<path opacity="0.18" d="M700.117 438.354H705.298V443.527H700.117V438.354Z" fill="white"/>
<g opacity="0.7">
<path opacity="0.7" d="M685.781 322.471H691.135V449.562H685.781V322.471Z" fill="#E6E6E6"/>
<path opacity="0.7" d="M676.627 322.471H681.981V449.562H676.627V322.471Z" fill="#E6E6E6"/>
<path opacity="0.7" d="M667.3 322.471H672.654V449.562H667.3V322.471Z" fill="#E6E6E6"/>
<path opacity="0.7" d="M657.973 322.471H663.327V449.562H657.973V322.471Z" fill="#E6E6E6"/>
<path opacity="0.7" d="M648.646 322.471H654V449.562H648.646V322.471Z" fill="#E6E6E6"/>
</g>
<path d="M613.584 449.563H721.016L613.584 356.098V449.563Z" fill="#333333"/>
<path d="M622.738 433.008H659.7V453.701H622.738V433.008Z" fill="#4D4D4D"/>
<path d="M625.502 428.18H656.937V437.837H625.502V428.18Z" fill="#4D4D4D"/>
<path d="M629.129 431.111H653.483L645.019 416.971H637.592L629.129 431.111Z" fill="#4D4D4D"/>
<path d="M632.583 437.147H649.855V449.735H632.583V437.147Z" fill="white"/>
<path d="M630.511 442.148H651.928V444.734H630.511V442.148Z" fill="#4D4D4D"/>
<path d="M457.79 466.979C457.272 480.43 467.635 491.984 481.28 492.501C494.752 493.019 506.325 482.499 506.843 469.049C507.361 455.598 496.998 444.044 483.353 443.527C469.881 443.01 458.481 453.529 457.79 466.979Z" fill="#333333"/>
<path d="M461.935 460.254C461.59 468.014 467.635 474.567 475.408 474.912C483.18 475.257 489.743 469.221 490.089 461.461C490.434 453.701 484.389 447.148 476.617 446.803C468.844 446.458 462.281 452.494 461.935 460.254Z" fill="#4D4D4D"/>
<path d="M704.435 441.63C704.435 444.907 707.198 447.666 710.48 447.666C713.762 447.666 716.525 444.907 716.525 441.63C716.525 438.354 713.762 435.595 710.48 435.595C707.198 435.595 704.435 438.181 704.435 441.63Z" fill="#333333"/>
<path d="M702.362 447.666C702.362 452.149 705.989 455.771 710.48 455.771C714.971 455.771 718.598 452.149 718.598 447.666C718.598 443.182 714.971 439.561 710.48 439.561C705.989 439.561 702.362 443.182 702.362 447.666Z" fill="#333333"/>
<path d="M706.507 436.457C706.507 438.699 708.235 440.596 710.48 440.596C712.725 440.596 714.453 438.699 714.453 436.457C714.453 434.215 712.725 432.318 710.48 432.318C708.235 432.318 706.507 434.215 706.507 436.457Z" fill="#333333"/>
<path d="M705.298 441.63C705.298 443.527 706.853 445.079 708.753 445.079C710.653 445.079 712.207 443.527 712.207 441.63C712.207 439.733 710.653 438.181 708.753 438.181C706.853 438.181 705.298 439.733 705.298 441.63Z" fill="#4D4D4D"/>
<path d="M707.026 436.974C707.026 438.354 708.235 439.561 709.616 439.561C710.998 439.561 712.207 438.354 712.207 436.974C712.207 435.595 710.998 434.388 709.616 434.388C708.235 434.215 707.026 435.422 707.026 436.974Z" fill="#4D4D4D"/>
<path d="M589.23 454.219C589.23 458.53 592.857 462.151 597.175 462.151C601.493 462.151 605.121 458.53 605.121 454.219C605.121 449.908 601.666 446.286 597.175 446.286C592.857 446.286 589.23 449.908 589.23 454.219Z" fill="#333333"/>
<path d="M591.994 447.493C591.994 450.425 594.239 452.839 597.175 452.839C600.112 452.839 602.357 450.425 602.357 447.493C602.357 444.562 600.112 442.147 597.175 442.147C594.412 442.147 591.994 444.562 591.994 447.493Z" fill="#333333"/>
<path d="M592.685 448.01C592.685 449.907 594.239 451.459 596.139 451.459C598.039 451.459 599.594 449.907 599.594 448.01C599.594 446.114 598.039 444.562 596.139 444.562C594.239 444.562 592.685 446.114 592.685 448.01Z" fill="#4D4D4D"/>
<path d="M599.939 460.082C600.803 468.359 608.23 474.222 616.348 473.36C624.638 472.498 630.511 465.083 629.647 456.978C628.783 448.701 621.356 442.838 613.239 443.7C605.121 444.562 599.075 451.805 599.939 460.082Z" fill="#333333"/>
<path d="M603.739 446.804C604.257 452.322 609.093 456.461 614.62 455.943C619.975 455.426 623.947 450.425 623.429 444.907C622.911 439.389 618.075 435.25 612.548 435.767C607.021 436.285 603.221 441.286 603.739 446.804Z" fill="#333333"/>
<path d="M605.121 447.838C605.466 451.46 608.748 454.046 612.202 453.701C615.829 453.357 618.42 450.08 618.075 446.631C617.729 443.01 614.448 440.423 610.993 440.768C607.366 441.113 604.775 444.389 605.121 447.838Z" fill="#4D4D4D"/>
<path d="M521.697 452.839C521.697 460.427 527.742 466.462 535.342 466.462C542.942 466.462 548.987 460.427 548.987 452.839C548.987 445.252 542.942 439.216 535.342 439.216C527.915 439.216 521.697 445.252 521.697 452.839Z" fill="#333333"/>
<path d="M526.533 441.113C526.533 446.286 530.506 450.425 535.514 450.425C540.523 450.425 544.496 446.286 544.496 441.113C544.496 435.939 540.523 431.801 535.514 431.801C530.506 431.973 526.533 436.112 526.533 441.113Z" fill="#333333"/>
<path d="M523.769 452.839C523.769 457.15 527.224 460.772 531.715 460.772C536.033 460.772 539.66 457.323 539.66 452.839C539.66 448.528 536.205 444.907 531.715 444.907C527.397 445.079 523.769 448.528 523.769 452.839Z" fill="#4D4D4D"/>
<path d="M527.742 442.32C527.742 445.596 530.333 448.356 533.787 448.356C537.069 448.356 539.832 445.769 539.832 442.32C539.832 439.044 537.242 436.457 533.787 436.457C530.333 436.284 527.742 439.044 527.742 442.32Z" fill="#4D4D4D"/>
<path d="M551.923 464.22C551.923 473.877 559.868 481.81 569.54 481.81C579.213 481.81 587.158 473.877 587.158 464.22C587.158 454.563 579.213 446.631 569.54 446.631C559.868 446.631 551.923 454.391 551.923 464.22Z" fill="#333333"/>
<path d="M557.968 449.045C557.968 455.598 563.15 460.944 569.54 460.944C575.931 460.944 581.113 455.598 581.113 449.045C581.113 442.492 575.931 437.146 569.54 437.146C563.15 437.146 557.968 442.492 557.968 449.045Z" fill="#333333"/>
<path d="M559.523 450.597C559.523 454.908 562.977 458.185 567.295 458.185C571.613 458.185 575.068 454.736 575.068 450.597C575.068 446.286 571.613 442.837 567.295 442.837C562.977 442.837 559.523 446.286 559.523 450.597Z" fill="#4D4D4D"/>
<path d="M434.991 446.804C434.991 453.529 440.346 458.875 447.082 458.875C453.818 458.875 459.172 453.529 459.172 446.804C459.172 440.078 453.818 434.732 447.082 434.732C440.346 434.732 434.991 440.078 434.991 446.804Z" fill="#333333"/>
<path d="M430.846 458.875C430.846 467.842 438.1 475.085 447.082 475.085C456.063 475.085 463.317 467.842 463.317 458.875C463.317 449.908 456.063 442.665 447.082 442.665C438.1 442.665 430.846 449.908 430.846 458.875Z" fill="#333333"/>
<path d="M439.136 436.457C439.136 440.941 442.764 444.734 447.082 444.734C451.4 444.734 455.027 441.113 455.027 436.457C455.027 431.973 451.4 428.18 447.082 428.18C442.764 428.18 439.136 431.973 439.136 436.457Z" fill="#333333"/>
<path d="M436.891 446.804C436.891 450.597 440 453.701 443.8 453.701C447.6 453.701 450.709 450.597 450.709 446.804C450.709 443.01 447.6 439.906 443.8 439.906C440 439.906 436.891 443.01 436.891 446.804Z" fill="#4D4D4D"/>
<path d="M440.173 437.492C440.173 440.423 442.591 442.837 445.527 442.837C448.463 442.837 450.881 440.423 450.881 437.492C450.881 434.56 448.463 432.146 445.527 432.146C442.591 432.146 440.173 434.56 440.173 437.492Z" fill="#4D4D4D"/>
<path d="M389.911 461.979C389.911 470.946 397.165 478.188 406.147 478.188C415.128 478.188 422.383 470.946 422.383 461.979C422.383 453.012 415.128 445.769 406.147 445.769C397.165 445.941 389.911 453.184 389.911 461.979Z" fill="#333333"/>
<path d="M395.611 448.183C395.611 454.219 400.447 459.22 406.147 459.22C412.02 459.22 416.856 454.391 416.856 448.183C416.856 442.148 412.02 437.319 406.147 437.319C400.275 437.319 395.611 442.148 395.611 448.183Z" fill="#333333"/>
<path d="M396.993 449.563C396.993 453.529 400.102 456.633 404.074 456.633C408.047 456.633 411.156 453.529 411.156 449.563C411.156 445.597 408.047 442.493 404.074 442.493C400.102 442.493 396.993 445.597 396.993 449.563Z" fill="#4D4D4D"/>
<path d="M125.649 468.532C125.649 483.362 137.567 495.261 152.421 495.261C167.275 495.261 179.193 483.362 179.193 468.532C179.193 453.701 167.275 441.803 152.421 441.803C137.567 441.803 125.649 453.874 125.649 468.532Z" fill="#333333"/>
<path d="M129.622 461.117C129.622 469.566 136.531 476.464 144.994 476.464C153.457 476.464 160.366 469.566 160.366 461.117C160.366 452.667 153.457 445.769 144.994 445.769C136.531 445.769 129.622 452.667 129.622 461.117Z" fill="#4D4D4D"/>
<path d="M91.2778 456.978C91.2778 469.394 101.468 479.568 113.904 479.568C126.34 479.568 136.531 469.394 136.531 456.978C136.531 444.562 126.34 434.388 113.904 434.388C101.296 434.388 91.2778 444.389 91.2778 456.978Z" fill="#333333"/>
<path d="M94.7324 450.597C94.7324 457.84 100.605 463.531 107.686 463.531C114.941 463.531 120.64 457.668 120.64 450.597C120.64 443.527 114.768 437.664 107.686 437.664C100.605 437.664 94.7324 443.527 94.7324 450.597Z" fill="#4D4D4D"/>
<path d="M148.966 460.599C148.966 473.015 159.157 483.189 171.593 483.189C184.029 483.189 194.219 473.015 194.219 460.599C194.219 448.183 184.029 438.009 171.593 438.009C158.984 438.009 148.966 448.011 148.966 460.599Z" fill="#333333"/>
<path d="M152.421 454.219C152.421 461.461 158.293 467.152 165.375 467.152C172.456 467.152 178.329 461.289 178.329 454.219C178.329 446.976 172.456 441.285 165.375 441.285C158.293 441.285 152.421 446.976 152.421 454.219Z" fill="#4D4D4D"/>
<path d="M218.745 465.773C218.745 478.189 228.936 488.363 241.372 488.363C253.808 488.363 263.998 478.189 263.998 465.773C263.998 453.357 253.808 443.183 241.372 443.183C228.763 443.183 218.745 453.357 218.745 465.773Z" fill="#333333"/>
<path d="M222.2 459.393C222.2 466.635 228.072 472.326 235.154 472.326C242.408 472.326 248.108 466.463 248.108 459.393C248.108 452.15 242.235 446.459 235.154 446.459C228.072 446.459 222.2 452.322 222.2 459.393Z" fill="#4D4D4D"/>
<path d="M246.035 461.979C246.035 474.395 256.226 484.569 268.662 484.569C281.098 484.569 291.288 474.395 291.288 461.979C291.288 449.563 281.098 439.389 268.662 439.389C256.226 439.389 246.035 449.39 246.035 461.979Z" fill="#333333"/>
<path d="M249.49 455.599C249.49 462.841 255.362 468.532 262.444 468.532C269.698 468.532 275.398 462.669 275.398 455.599C275.398 448.356 269.525 442.665 262.444 442.665C255.362 442.665 249.49 448.356 249.49 455.599Z" fill="#4D4D4D"/>
<path d="M228.418 458.357C228.418 465.6 234.29 471.29 241.372 471.29C248.626 471.29 254.326 465.427 254.326 458.357C254.326 451.114 248.453 445.424 241.372 445.424C234.118 445.424 228.418 451.287 228.418 458.357Z" fill="#4D4D4D"/>
<path d="M324.968 459.392C324.968 467.497 331.532 474.222 339.822 474.222C347.94 474.222 354.676 467.669 354.676 459.392C354.676 451.287 348.113 444.562 339.822 444.562C331.532 444.734 324.968 451.287 324.968 459.392Z" fill="#333333"/>
<path d="M327.214 455.253C327.214 459.909 331.014 463.703 335.677 463.703C340.34 463.703 344.14 459.909 344.14 455.253C344.14 450.597 340.34 446.803 335.677 446.803C331.014 446.803 327.214 450.597 327.214 455.253Z" fill="#4D4D4D"/>
<path d="M713.071 447.666C713.071 454.564 718.598 460.082 725.507 460.082C732.416 460.082 737.943 454.564 737.943 447.666C737.943 440.768 732.416 435.25 725.507 435.25C718.771 435.077 713.071 440.768 713.071 447.666Z" fill="#333333"/>
<path d="M708.926 460.082C708.926 469.394 716.353 476.809 725.68 476.809C735.006 476.809 742.433 469.394 742.433 460.082C742.433 450.77 735.006 443.355 725.68 443.355C716.353 443.355 708.926 450.77 708.926 460.082Z" fill="#333333"/>
<path d="M717.389 436.974C717.389 441.63 721.016 445.424 725.68 445.424C730.17 445.424 733.97 441.63 733.97 436.974C733.97 432.318 730.343 428.524 725.68 428.524C721.016 428.524 717.389 432.318 717.389 436.974Z" fill="#333333"/>
<path d="M714.971 447.666C714.971 451.632 718.253 454.908 722.225 454.908C726.198 454.908 729.479 451.632 729.479 447.666C729.479 443.699 726.198 440.423 722.225 440.423C718.253 440.423 714.971 443.699 714.971 447.666Z" fill="#4D4D4D"/>
<path d="M718.425 438.009C718.425 440.941 720.843 443.527 723.952 443.527C726.889 443.527 729.479 441.113 729.479 438.009C729.479 435.077 727.061 432.491 723.952 432.491C721.016 432.491 718.425 434.905 718.425 438.009Z" fill="#4D4D4D"/>
<path d="M654.173 452.494C654.173 458.013 658.664 462.496 664.191 462.496C669.718 462.496 674.209 458.013 674.209 452.494C674.209 446.976 669.718 442.493 664.191 442.493C658.664 442.493 654.173 446.976 654.173 452.494Z" fill="#333333"/>
<path d="M657.628 443.872C657.628 447.666 660.564 450.77 664.191 450.77C667.818 450.77 670.755 447.666 670.755 443.872C670.755 440.079 667.818 436.975 664.191 436.975C660.564 437.147 657.628 440.079 657.628 443.872Z" fill="#333333"/>
<path d="M655.728 452.494C655.728 455.771 658.319 458.358 661.6 458.358C664.882 458.358 667.473 455.771 667.473 452.494C667.473 449.39 664.882 446.804 661.6 446.804C658.319 446.631 655.728 449.218 655.728 452.494Z" fill="#4D4D4D"/>
<path d="M658.491 444.734C658.491 447.149 660.391 449.046 662.809 449.046C665.227 449.046 667.127 447.149 667.127 444.734C667.127 442.32 665.227 440.423 662.809 440.423C660.391 440.251 658.491 442.32 658.491 444.734Z" fill="#4D4D4D"/>
</svg>
